<svg xmlns="http://www.w3.org/2000/svg" xmlns:xlink="http://www.w3.org/1999/xlink" width="0" height="0" style="display:none;"><symbol viewBox="0 0 24 24" id="menu-2-line"><path d="M3 4H21V6H3V4ZM3 11H15V13H3V11ZM3 18H21V20H3V18Z"></path></symbol><symbol viewBox="0 0 24 24" id="download-line"><path d="M3 19H21V21H3V19ZM13 13.1716L19.0711 7.1005L20.4853 8.51472L12 17L3.51472 8.51472L4.92893 7.1005L11 13.1716V2H13V13.1716Z"></path></symbol><symbol viewBox="0 0 24 24" id="shape-line"><path d="M7.82929 20C7.41746 21.1652 6.30622 22 5 22C3.34315 22 2 20.6569 2 19C2 17.6938 2.83481 16.5825 4 16.1707V7.82929C2.83481 7.41746 2 6.30622 2 5C2 3.34315 3.34315 2 5 2C6.30622 2 7.41746 2.83481 7.82929 4H16.1707C16.5825 2.83481 17.6938 2 19 2C20.6569 2 22 3.34315 22 5C22 6.30622 21.1652 7.41746 20 7.82929V16.1707C21.1652 16.5825 22 17.6938 22 19C22 20.6569 20.6569 22 19 22C17.6938 22 16.5825 21.1652 16.1707 20H7.82929ZM7.82929 18H16.1707C16.472 17.1476 17.1476 16.472 18 16.1707V7.82929C17.1476 7.52801 16.472 6.85241 16.1707 6H7.82929C7.52801 6.85241 6.85241 7.52801 6 7.82929V16.1707C6.85241 16.472 7.52801 17.1476 7.82929 18ZM5 6C5.55228 6 6 5.55228 6 5C6 4.44772 5.55228 4 5 4C4.44772 4 4 4.44772 4 5C4 5.55228 4.44772 6 5 6ZM19 6C19.5523 6 20 5.55228 20 5C20 4.44772 19.5523 4 19 4C18.4477 4 18 4.44772 18 5C18 5.55228 18.4477 6 19 6ZM19 20C19.5523 20 20 19.5523 20 19C20 18.4477 19.5523 18 19 18C18.4477 18 18 18.4477 18 19C18 19.5523 18.4477 20 19 20ZM5 20C5.55228 20 6 19.5523 6 19C6 18.4477 5.55228 18 5 18C4.44772 18 4 18.4477 4 19C4 19.5523 4.44772 20 5 20Z"></path></symbol><symbol viewBox="0 0 24 24" id="computer-line"><path d="M4 16H20V5H4V16ZM13 18V20H17V22H7V20H11V18H2.9918C2.44405 18 2 17.5511 2 16.9925V4.00748C2 3.45107 2.45531 3 2.9918 3H21.0082C21.556 3 22 3.44892 22 4.00748V16.9925C22 17.5489 21.5447 18 21.0082 18H13Z"></path></symbol><symbol viewBox="0 0 24 24" id="service-line"><path d="M3.16113 4.46875C5.58508 2.0448 9.44716 1.9355 12.0008 4.14085C14.5528 1.9355 18.4149 2.0448 20.8388 4.46875C23.2584 6.88836 23.3716 10.741 21.1785 13.2947L13.4142 21.0858C12.6686 21.8313 11.4809 21.8652 10.6952 21.1874L10.5858 21.0858L2.82141 13.2947C0.628282 10.741 0.741522 6.88836 3.16113 4.46875ZM4.57534 5.88296C2.86819 7.59011 2.81942 10.3276 4.42902 12.0937L4.57534 12.2469L12 19.6715L17.3026 14.3675L13.7677 10.8327L12.7071 11.8934C11.5355 13.0649 9.636 13.0649 8.46443 11.8934C7.29286 10.7218 7.29286 8.8223 8.46443 7.65073L10.5656 5.54823C8.85292 4.17713 6.37076 4.23993 4.7286 5.73663L4.57534 5.88296ZM13.0606 8.71139C13.4511 8.32086 14.0843 8.32086 14.4748 8.71139L18.7168 12.9533L19.4246 12.2469C21.1819 10.4896 21.1819 7.64032 19.4246 5.88296C17.7174 4.17581 14.9799 4.12704 13.2139 5.73663L13.0606 5.88296L9.87864 9.06494C9.51601 9.42757 9.49011 9.99942 9.80094 10.3919L9.87864 10.4792C10.2413 10.8418 10.8131 10.8677 11.2056 10.5569L11.2929 10.4792L13.0606 8.71139Z"></path></symbol><symbol viewBox="0 0 24 24" id="award-line"><path d="M17 15.2454V22.1169C17 22.393 16.7761 22.617 16.5 22.617C16.4094 22.617 16.3205 22.5923 16.2428 22.5457L12 20L7.75725 22.5457C7.52046 22.6877 7.21333 22.6109 7.07125 22.3742C7.02463 22.2964 7 22.2075 7 22.1169V15.2454C5.17107 13.7793 4 11.5264 4 9C4 4.58172 7.58172 1 12 1C16.4183 1 20 4.58172 20 9C20 11.5264 18.8289 13.7793 17 15.2454ZM9 16.4185V19.4676L12 17.6676L15 19.4676V16.4185C14.0736 16.7935 13.0609 17 12 17C10.9391 17 9.92643 16.7935 9 16.4185ZM12 15C15.3137 15 18 12.3137 18 9C18 5.68629 15.3137 3 12 3C8.68629 3 6 5.68629 6 9C6 12.3137 8.68629 15 12 15Z"></path></symbol><symbol viewBox="0 0 24 24" id="skype-line"><path d="M13.0052 18.4232C13.4288 18.3577 13.8623 18.43 14.2418 18.6295C14.7026 18.8719 15.2154 19 15.751 19C17.5459 19 19.001 17.5449 19.001 15.75C19.001 15.2144 18.8728 14.7016 18.6305 14.2408C18.431 13.8613 18.3586 13.4278 18.4242 13.0042C18.4752 12.6746 18.501 12.3393 18.501 12C18.501 8.41015 15.5908 5.5 12.001 5.5C11.6617 5.5 11.3264 5.52582 10.9968 5.57681C10.5731 5.64234 10.1396 5.57001 9.7602 5.37047C9.29939 5.12815 8.7866 5 8.25098 5C6.45605 5 5.00098 6.45507 5.00098 8.25C5.00098 8.78562 5.12912 9.29841 5.37145 9.75922C5.57098 10.1387 5.64332 10.5722 5.57778 10.9958C5.5268 11.3254 5.50098 11.6607 5.50098 12C5.50098 15.5899 8.41113 18.5 12.001 18.5C12.3403 18.5 12.6755 18.4742 13.0052 18.4232ZM12.001 20.5C7.30656 20.5 3.50098 16.6944 3.50098 12C3.50098 11.5545 3.53524 11.1171 3.60129 10.6901C3.21792 9.96108 3.00098 9.13087 3.00098 8.25C3.00098 5.35051 5.35148 3 8.25098 3C9.13185 3 9.96205 3.21694 10.6911 3.60031C11.118 3.53427 11.5555 3.5 12.001 3.5C16.6954 3.5 20.501 7.30558 20.501 12C20.501 12.4455 20.4667 12.8829 20.4007 13.3099C20.784 14.0389 21.001 14.8691 21.001 15.75C21.001 18.6495 18.6505 21 15.751 21C14.8701 21 14.0399 20.7831 13.3109 20.3997C12.8839 20.4657 12.4464 20.5 12.001 20.5ZM12.0539 16.9993C9.25237 16.9993 8.00098 15.6213 8.00098 14.5872C8.00098 14.0545 8.39165 13.6848 8.92925 13.6848C10.1291 13.6848 9.81574 15.4096 12.0539 15.4096C13.1967 15.4096 13.8297 14.7864 13.8297 14.1485C13.8297 13.7648 13.6423 13.3408 12.8868 13.1535L10.3965 12.5303C8.39095 12.0261 8.02674 10.9384 8.02674 9.91832C8.02674 7.7966 10.0191 7 11.8909 7C13.6117 7 15.6465 7.95606 15.6465 9.22756C15.6465 9.77348 15.1674 10.091 14.6347 10.091C13.6117 10.091 13.8004 8.67259 11.735 8.67259C10.712 8.67259 10.1389 9.13495 10.1389 9.79855C10.1389 10.4622 10.9418 10.6745 11.6409 10.834L13.4773 11.2427C15.4905 11.6947 16.001 12.8763 16.001 13.9891C16.001 15.7132 14.6765 17 12.0163 17L12.0539 16.9993Z"></path></symbol><symbol viewBox="0 0 24 24" id="phone-fill"><path d="M21 16.42V19.9561C21 20.4811 20.5941 20.9167 20.0705 20.9537C19.6331 20.9846 19.2763 21 19 21C10.1634 21 3 13.8366 3 5C3 4.72371 3.01545 4.36687 3.04635 3.9295C3.08337 3.40588 3.51894 3 4.04386 3H7.5801C7.83678 3 8.05176 3.19442 8.07753 3.4498C8.10067 3.67907 8.12218 3.86314 8.14207 4.00202C8.34435 5.41472 8.75753 6.75936 9.3487 8.00303C9.44359 8.20265 9.38171 8.44159 9.20185 8.57006L7.04355 10.1118C8.35752 13.1811 10.8189 15.6425 13.8882 16.9565L15.4271 14.8019C15.5572 14.6199 15.799 14.5573 16.001 14.6532C17.2446 15.2439 18.5891 15.6566 20.0016 15.8584C20.1396 15.8782 20.3225 15.8995 20.5502 15.9225C20.8056 15.9483 21 16.1633 21 16.42Z"></path></symbol><symbol viewBox="0 0 24 24" id="mail-line"><path d="M3 3H21C21.5523 3 22 3.44772 22 4V20C22 20.5523 21.5523 21 21 21H3C2.44772 21 2 20.5523 2 20V4C2 3.44772 2.44772 3 3 3ZM20 7.23792L12.0718 14.338L4 7.21594V19H20V7.23792ZM4.51146 5L12.0619 11.662L19.501 5H4.51146Z"></path></symbol><symbol viewBox="0 0 24 24" id="map-2-fill"><path d="M2 5L9 2L15 5L21.303 2.2987C21.5569 2.18992 21.8508 2.30749 21.9596 2.56131C21.9862 2.62355 22 2.69056 22 2.75827V19L15 22L9 19L2.69696 21.7013C2.44314 21.8101 2.14921 21.6925 2.04043 21.4387C2.01375 21.3765 2 21.3094 2 21.2417V5ZM15 19.7639V7.17594L14.9352 7.20369L9 4.23607V16.8241L9.06476 16.7963L15 19.7639Z"></path></symbol><symbol viewBox="0 0 24 24" id="facebook-circle-fill"><path d="M12.001 2C6.47813 2 2.00098 6.47715 2.00098 12C2.00098 16.9913 5.65783 21.1283 10.4385 21.8785V14.8906H7.89941V12H10.4385V9.79688C10.4385 7.29063 11.9314 5.90625 14.2156 5.90625C15.3097 5.90625 16.4541 6.10156 16.4541 6.10156V8.5625H15.1931C13.9509 8.5625 13.5635 9.33334 13.5635 10.1242V12H16.3369L15.8936 14.8906H13.5635V21.8785C18.3441 21.1283 22.001 16.9913 22.001 12C22.001 6.47715 17.5238 2 12.001 2Z"></path></symbol><symbol viewBox="0 0 24 24" id="twitter-x-line"><path d="M10.4883 14.651L15.25 21H22.25L14.3917 10.5223L20.9308 3H18.2808L13.1643 8.88578L8.75 3H1.75L9.26086 13.0145L2.31915 21H4.96917L10.4883 14.651ZM16.25 19L5.75 5H7.75L18.25 19H16.25Z"></path></symbol><symbol viewBox="0 0 24 24" id="linkedin-fill"><path d="M6.94048 4.99993C6.94011 5.81424 6.44608 6.54702 5.69134 6.85273C4.9366 7.15845 4.07187 6.97605 3.5049 6.39155C2.93793 5.80704 2.78195 4.93715 3.1105 4.19207C3.43906 3.44699 4.18654 2.9755 5.00048 2.99993C6.08155 3.03238 6.94097 3.91837 6.94048 4.99993ZM7.00048 8.47993H3.00048V20.9999H7.00048V8.47993ZM13.3205 8.47993H9.34048V20.9999H13.2805V14.4299C13.2805 10.7699 18.0505 10.4299 18.0505 14.4299V20.9999H22.0005V13.0699C22.0005 6.89993 14.9405 7.12993 13.2805 10.1599L13.3205 8.47993Z"></path></symbol><symbol viewBox="0 0 24 24" id="github-fill"><path d="M12.001 2C6.47598 2 2.00098 6.475 2.00098 12C2.00098 16.425 4.86348 20.1625 8.83848 21.4875C9.33848 21.575 9.52598 21.275 9.52598 21.0125C9.52598 20.775 9.51348 19.9875 9.51348 19.15C7.00098 19.6125 6.35098 18.5375 6.15098 17.975C6.03848 17.6875 5.55098 16.8 5.12598 16.5625C4.77598 16.375 4.27598 15.9125 5.11348 15.9C5.90098 15.8875 6.46348 16.625 6.65098 16.925C7.55098 18.4375 8.98848 18.0125 9.56348 17.75C9.65098 17.1 9.91348 16.6625 10.201 16.4125C7.97598 16.1625 5.65098 15.3 5.65098 11.475C5.65098 10.3875 6.03848 9.4875 6.67598 8.7875C6.57598 8.5375 6.22598 7.5125 6.77598 6.1375C6.77598 6.1375 7.61348 5.875 9.52598 7.1625C10.326 6.9375 11.176 6.825 12.026 6.825C12.876 6.825 13.726 6.9375 14.526 7.1625C16.4385 5.8625 17.276 6.1375 17.276 6.1375C17.826 7.5125 17.476 8.5375 17.376 8.7875C18.0135 9.4875 18.401 10.375 18.401 11.475C18.401 15.3125 16.0635 16.1625 13.8385 16.4125C14.201 16.725 14.5135 17.325 14.5135 18.2625C14.5135 19.6 14.501 20.675 14.501 21.0125C14.501 21.275 14.6885 21.5875 15.1885 21.4875C19.259 20.1133 21.9999 16.2963 22.001 12C22.001 6.475 17.526 2 12.001 2Z"></path></symbol></svg>