<svg viewBox="0 0 400 250" fill="none" xmlns="http://www.w3.org/2000/svg">
  <rect width="400" height="250" fill="#ECE5D8"/>
  <g stroke="#A89A87" stroke-width="0.6" opacity="0.4">
    <line x1="0" y1="62.5" x2="400" y2="62.5"/>
    <line x1="0" y1="125" x2="400" y2="125"/>
    <line x1="0" y1="187.5" x2="400" y2="187.5"/>
    <line x1="100" y1="0" x2="100" y2="250"/>
    <line x1="200" y1="0" x2="200" y2="250"/>
    <line x1="300" y1="0" x2="300" y2="250"/>
  </g>

  <!-- query node fanning to 3 sources, merging to answer -->
  <circle cx="55" cy="125" r="9" fill="#1E1C19"/>
  <g stroke="#7C6E5C" stroke-width="1.1">
    <line x1="64" y1="118" x2="180" y2="70"/>
    <line x1="64" y1="125" x2="180" y2="125"/>
    <line x1="64" y1="132" x2="180" y2="180"/>
  </g>
  <circle cx="190" cy="70" r="7" stroke="#7C6E5C" stroke-width="1.2" fill="#ECE5D8"/>
  <circle cx="190" cy="125" r="7" stroke="#7C6E5C" stroke-width="1.2" fill="#ECE5D8"/>
  <circle cx="190" cy="180" r="7" stroke="#7C6E5C" stroke-width="1.2" fill="#ECE5D8"/>

  <g stroke="#1E1C19" stroke-width="1.1">
    <line x1="197" y1="72" x2="330" y2="120"/>
    <line x1="197" y1="125" x2="330" y2="123"/>
    <line x1="197" y1="178" x2="330" y2="128"/>
  </g>
  <circle cx="340" cy="125" r="11" fill="#1E1C19"/>
  <text x="340" y="129" text-anchor="middle" font-family="'IBM Plex Mono', monospace" font-size="9" fill="#F4EFE6">A</text>
</svg>
