<svg width="48" height="48" viewBox="0 0 48 48" fill="none" xmlns="http://www.w3.org/2000/svg">

  <!-- Background -->
  <path d="M40.1583 0H7.84409C3.51233 0 0.000732422 3.4657 0.000732422 7.74087V39.6329C0.000732422 43.9081 3.51233 47.3738 7.84409 47.3738H40.1583C44.4901 47.3738 48.0017 43.9081 48.0017 39.6329V7.74087C48.0017 3.4657 44.4901 0 40.1583 0Z"
        fill="url(#paint0_linear)"/>

  <!-- Main circular mark -->
  <path d="M23.9404 6.23877C18.9222 6.23877 14.3935 8.30261 11.1753 11.6166C10.7848 12.0183 10.2639 12.6567 10.1429 13.1331C9.82372 14.3773 11.4514 15.1095 12.3656 14.0249C15.1464 10.8529 19.2549 8.84926 23.9404 8.84926C32.3086 8.84926 39.2016 15.7355 39.1057 24.0127C39.0101 32.2145 32.2568 38.8215 23.9408 38.8215C19.5577 38.8215 15.6104 36.9877 12.8417 34.0545C11.4042 32.9016 9.86267 34.4196 11.2685 35.8297C14.5909 39.5266 19.4776 41.8241 24.9056 41.7073C34.6557 41.4975 42.3498 33.5981 42.1926 23.4001C42.0373 13.0409 34.1816 6.23901 23.9408 6.23901Z"
        fill="white"/>

  <!-- Upper bar -->
  <path d="M21.5249 14.7301C20.4007 14.7301 19.574 15.4508 18.9387 16.2778H7.93481L7.12109 18.4054H18.6098C19.0328 18.3979 19.3884 18.6285 19.5508 18.8286C20.1581 19.5783 20.9811 20.1834 22.0239 20.1834C23.635 20.1834 24.9415 18.8944 24.9415 17.3042C24.9415 15.7141 23.635 14.7301 21.5249 14.7301Z"
        fill="white"/>

  <!-- Lower bar -->
  <path d="M21.5249 26.887C20.4007 26.887 19.574 27.6077 18.9387 28.4347H7.12109L7.93481 30.5622H18.6111C19.034 30.5548 19.3897 30.7854 19.5521 30.9855C20.1594 31.7352 20.9824 32.3402 22.0252 32.3402C23.6363 32.3539 24.9536 31.076 24.9675 29.486C24.9815 27.8961 23.6866 26.9008 22.0755 26.887H21.5249Z"
        fill="white"/>

  <!-- Center bar -->
  <path d="M30.569 20.8087C29.4447 20.8087 28.6181 21.5294 27.9828 22.3564H6.38269V24.4867H18.9024C26.7085 24.4894 27.1459 24.4816 28.0828 24.9035C28.6901 25.6532 29.5131 26.2582 30.5559 26.2582C32.167 26.2719 33.4843 24.994 33.4982 23.4041C33.5122 21.8142 32.2173 20.8224 30.6062 20.8086H30.569Z"
        fill="white"/>

  <defs>
    <linearGradient id="paint0_linear" x1="0" y1="24" x2="48" y2="24" gradientUnits="userSpaceOnUse">
      <stop stop-color="#E064D7"/>
      <stop offset="1" stop-color="#911AFF"/>
    </linearGradient>
  </defs>
</svg>
